 <svg version="1.0" xmlns="http://www.w3.org/2000/svg" width="700.000000pt" height="700.000000pt" viewBox="0 0 700.000000 700.000000" preserveAspectRatio="xMidYMid meet">
<metadata>
Created by potrace 1.12, written by Peter Selinger 2001-2015
</metadata>
<g transform="translate(0.000000,700.000000) scale(0.100000,-0.100000)" fill="#000000" stroke="none">
<path d="M3200 6899 c-198 -22 -373 -51 -480 -78 -180 -47 -286 -79 -428 -132
-255 -95 -456 -201 -707 -370 -385 -260 -670 -549 -932 -944 -208 -313 -355
-644 -454 -1020 -25 -94 -30 -115 -48 -210 -137 -710 -43 -1453 268 -2107 194
-411 498 -813 831 -1101 369 -319 756 -538 1195 -677 88 -28 176 -55 195 -60
549 -141 1119 -147 1660 -15 237 58 443 131 680 242 130 61 270 143 435 254
378 256 670 550 922 929 218 328 364 653 464 1035 25 96 30 114 45 190 87 437
84 933 -7 1354 -44 200 -64 277 -114 421 -243 702 -699 1297 -1310 1709 -358
241 -672 382 -1095 492 -132 34 -323 66 -500 84 -155 16 -495 18 -620 4z m690
-138 c30 -5 87 -15 125 -21 613 -96 1192 -370 1660 -784 44 -39 86 -75 93 -81
7 -5 60 -62 119 -125 462 -499 741 -1065 852 -1725 32 -192 36 -244 36 -525 0
-305 -7 -387 -57 -640 -204 -1047 -940 -1956 -1922 -2375 -294 -125 -553 -194
-916 -246 -126 -18 -642 -19 -760 -1 -209 32 -280 45 -445 88 -1056 269 -1918
1065 -2275 2101 -79 228 -120 406 -161 693 -19 129 -19 631 0 760 48 335 107
570 211 830 333 837 1003 1507 1840 1840 291 116 661 202 965 224 93 7 580 -3
635 -13z"></path>
<path d="M3505 6410 c-3 -5 -12 -169 -30 -535 -3 -60 -6 -119 -8 -130 -1 -14
4 -20 17 -20 16 0 20 9 23 60 2 33 7 105 11 160 l7 100 105 0 c88 0 105 3 108
16 2 13 -13 17 -100 23 -56 3 -106 10 -111 15 -6 6 -5 54 2 121 6 61 9 115 6
119 -3 5 -2 16 1 25 5 13 21 15 110 9 93 -5 104 -4 104 11 0 9 -6 19 -12 21
-19 6 -229 11 -233 5z"></path>
<path d="M3166 6402 c-3 -5 1 -56 9 -113 8 -57 20 -142 26 -189 6 -47 15 -107
20 -133 12 -63 12 -114 0 -101 -5 5 -69 115 -142 244 -142 253 -153 270 -169
254 -10 -10 -8 -30 41 -384 11 -80 22 -180 26 -223 6 -77 20 -104 43 -81 5 5
-3 97 -19 219 -41 302 -43 315 -34 315 4 0 71 -112 148 -248 85 -151 146 -247
155 -247 22 0 23 -11 -35 425 -15 107 -30 210 -34 229 -7 34 -24 50 -35 33z"></path>
<path d="M3353 6244 c4 -93 10 -249 13 -346 7 -165 8 -178 26 -178 18 0 18 8
12 153 -3 83 -9 237 -13 342 -6 176 -7 190 -25 193 -18 4 -19 -2 -13 -164z"></path>
<path d="M3954 6351 c-47 -29 -68 -82 -94 -231 -5 -30 -18 -104 -30 -165 -31
-162 -18 -220 58 -259 40 -21 116 -21 147 0 51 33 67 78 106 299 5 33 15 77
20 99 6 21 11 72 11 113 1 59 -3 80 -19 101 -43 58 -140 79 -199 43z m146 -50
c34 -28 35 -31 34 -98 0 -38 -5 -89 -11 -114 -6 -24 -16 -69 -21 -99 -33 -175
-45 -214 -74 -242 -44 -41 -99 -39 -144 6 -37 37 -42 66 -24 153 5 26 21 111
35 188 15 77 33 152 41 167 38 74 104 90 164 39z"></path>
<path d="M2687 6313 c-4 -3 -5 -34 -2 -67 9 -120 16 -536 8 -536 -4 0 -73 99
-152 220 -167 254 -194 290 -211 274 -8 -8 -7 -21 3 -50 8 -21 29 -84 46 -139
17 -55 51 -161 75 -236 24 -75 49 -160 57 -188 9 -38 17 -51 31 -51 10 0 18 7
18 17 0 17 -43 160 -102 336 -16 48 -28 95 -26 104 2 9 64 -77 138 -191 97
-148 140 -206 154 -206 18 0 19 9 12 261 -5 180 -4 259 4 254 5 -3 10 -12 10
-19 0 -7 9 -39 19 -72 10 -32 40 -126 66 -209 51 -163 63 -186 85 -160 10 12
10 19 2 27 -7 7 -12 20 -12 30 0 10 -4 26 -9 36 -5 9 -24 64 -41 122 -18 58
-40 130 -50 160 -10 30 -33 102 -51 160 -37 123 -51 145 -72 123z"></path>
<path d="M4384 6242 c-31 -25 -60 -71 -77 -122 -9 -25 -38 -110 -66 -189 -40
-113 -51 -157 -51 -205 0 -57 3 -64 33 -92 90 -84 189 -67 242 41 40 80 145
402 145 443 0 46 -30 96 -72 122 -42 26 -124 27 -154 2z m120 -36 c67 -28 83
-91 46 -182 -10 -27 -42 -114 -69 -193 -62 -179 -85 -206 -168 -202 -13 0 -37
14 -54 29 -46 41 -42 86 26 279 73 206 83 230 118 259 33 28 54 30 101 10z"></path>
<path d="M4786 6097 c-13 -23 -57 -107 -98 -187 -42 -80 -104 -198 -138 -264
-34 -65 -58 -122 -53 -127 4 -4 34 -21 67 -38 45 -24 71 -31 117 -31 53 0 61
3 92 34 19 19 56 76 82 127 26 52 68 132 94 179 42 79 46 90 46 157 0 86 -10
99 -117 156 l-68 36 -24 -42z m101 -47 c50 -28 83 -70 83 -104 0 -8 -43 -101
-96 -205 -100 -197 -148 -261 -196 -261 -31 0 -128 50 -128 66 0 7 11 33 24
56 13 24 64 122 114 218 123 239 135 260 141 260 3 0 30 -14 58 -30z"></path>
<path d="M2040 6059 c-14 -5 -40 -24 -57 -42 -30 -28 -33 -37 -33 -87 0 -59 1
-60 158 -366 64 -124 128 -170 201 -144 55 20 90 48 107 88 13 31 14 45 4 86
-16 64 -179 381 -222 430 -29 33 -40 39 -83 42 -28 2 -61 -1 -75 -7z m100 -44
c33 -17 74 -83 174 -282 79 -156 87 -187 57 -225 -23 -29 -74 -58 -100 -58
-39 0 -88 60 -151 182 -35 68 -78 151 -97 186 -37 67 -45 130 -22 159 20 23
71 53 92 53 10 0 31 -7 47 -15z"></path>
<path d="M4549 5037 c-326 -393 -400 -485 -521 -647 -115 -154 -138 -199 -138
-273 0 -33 9 -81 21 -115 11 -31 23 -65 26 -74 5 -17 -65 -123 -311 -475 -66
-95 -125 -173 -130 -173 -6 1 -45 50 -86 111 -41 61 -89 129 -106 152 -93 127
-244 358 -244 374 0 11 10 39 22 64 20 39 23 59 22 174 0 140 -10 183 -76 325
-155 334 -658 678 -834 571 -79 -48 -97 -234 -43 -441 51 -196 124 -350 231
-486 136 -174 354 -291 527 -282 l65 3 40 -57 c23 -31 90 -125 150 -210 60
-84 130 -182 156 -218 26 -36 64 -89 84 -119 l36 -53 -47 -67 c-105 -149 -314
-423 -407 -535 -70 -83 -148 -160 -265 -260 -91 -78 -186 -162 -210 -186 -59
-59 -101 -127 -101 -164 1 -44 25 -139 47 -183 27 -56 56 -66 169 -58 167 13
170 18 350 485 51 133 93 218 166 340 123 205 339 529 354 530 12 0 152 -203
276 -400 76 -122 103 -167 166 -282 12 -20 44 -99 73 -175 115 -309 149 -383
198 -437 40 -44 80 -56 188 -57 93 -2 98 -1 119 24 25 29 52 113 61 188 4 38
1 57 -17 91 -29 58 -66 94 -270 273 -193 168 -228 204 -346 350 -168 210 -384
504 -384 524 0 7 33 58 73 114 185 259 368 513 379 528 10 12 38 17 109 22
108 6 154 24 205 79 57 60 234 337 419 653 48 83 98 167 111 187 13 21 24 40
24 43 0 3 11 23 25 43 14 20 25 45 25 54 0 30 -27 20 -50 -19 -12 -21 -37 -58
-56 -83 -32 -44 -114 -158 -377 -532 -73 -102 -138 -189 -146 -192 -18 -8 -43
14 -38 34 4 15 278 420 495 731 56 80 102 151 102 157 0 30 -23 17 -57 -32
-153 -217 -220 -311 -271 -381 -32 -44 -105 -145 -162 -225 -144 -201 -159
-220 -180 -220 -20 0 -34 26 -23 43 6 10 442 652 483 711 8 11 38 54 67 95 29
41 50 78 47 83 -13 21 -36 0 -105 -99 -42 -60 -126 -178 -187 -263 -61 -85
-165 -229 -230 -319 -65 -91 -126 -169 -135 -175 -13 -8 -21 -7 -34 6 -16 16
-12 24 59 130 42 62 102 149 133 193 31 44 88 127 127 185 39 58 113 165 165
238 83 116 100 152 75 152 -4 0 -41 -42 -83 -93z"></path>
<path d="M1246 2035 c-116 -78 -212 -147 -214 -153 -8 -26 33 -9 118 48 86 58
110 69 110 52 0 -5 16 -27 36 -50 33 -39 39 -42 85 -42 40 0 60 6 95 31 73 50
84 112 33 190 -16 26 -35 52 -42 56 -8 6 -80 -37 -221 -132z m238 52 c15 -19
26 -44 26 -56 0 -49 -73 -111 -130 -111 -26 0 -90 63 -89 88 0 17 132 111 156
112 7 0 23 -15 37 -33z"></path>
<path d="M5514 2157 c-2 -7 21 -61 51 -120 31 -59 53 -112 50 -117 -4 -6 -16
-8 -28 -5 -58 13 -223 23 -231 15 -20 -20 12 -28 148 -38 l140 -11 103 -71
c94 -64 133 -80 133 -52 0 5 -47 40 -106 78 l-105 69 -66 133 c-63 127 -78
147 -89 119z"></path>
<path d="M1455 1854 c-77 -63 -166 -136 -197 -162 -32 -26 -56 -51 -55 -56 7
-22 28 -15 74 27 27 24 67 56 88 72 l38 29 33 -38 c57 -66 47 -94 -71 -193
-39 -32 -47 -44 -38 -54 9 -9 25 -1 73 41 76 66 100 96 100 126 0 22 10 29 34
25 25 -5 79 25 115 64 35 38 41 51 41 87 0 36 -7 52 -41 93 -23 28 -44 51 -47
52 -4 1 -70 -50 -147 -113z m174 29 c38 -46 39 -76 5 -120 -24 -31 -79 -63
-110 -63 -20 0 -84 68 -84 88 1 15 134 131 152 132 3 0 20 -17 37 -37z"></path>
<path d="M3025 1931 l-40 -6 0 -140 0 -140 53 0 c60 0 71 18 15 25 l-38 5 0
50 0 50 37 0 c51 0 49 19 -2 23 l-41 3 3 52 c3 52 3 52 41 57 21 3 38 10 38
15 0 13 -15 14 -66 6z"></path>
<path d="M3135 1916 c-17 -17 -25 -36 -25 -59 0 -35 17 -56 73 -90 19 -13 27
-26 27 -46 0 -57 -57 -66 -70 -12 -7 29 -24 32 -28 5 -4 -28 34 -74 62 -74 34
0 66 40 66 81 0 38 -27 71 -67 84 -39 11 -43 85 -6 99 20 8 41 -9 45 -37 4
-29 22 -24 26 6 3 25 -20 51 -55 61 -17 5 -29 1 -48 -18z"></path>
<path d="M3253 1927 c-8 -14 37 -22 110 -19 24 1 37 6 35 14 -4 12 -137 18
-145 5z"></path>
<path d="M3555 1915 c-28 -27 -33 -65 -10 -65 8 0 15 8 15 19 0 10 7 25 16 32
14 11 18 10 31 -6 22 -30 9 -81 -31 -126 -30 -33 -36 -47 -36 -84 l0 -45 50 0
c38 0 50 4 50 15 0 11 -11 15 -35 15 -53 0 -54 22 -4 86 36 47 42 62 42 101 0
36 -5 50 -22 65 -30 24 -37 23 -66 -7z"></path>
<path d="M3686 1914 c-13 -12 -16 -39 -16 -128 0 -97 3 -115 18 -129 22 -20
56 -22 69 -4 14 18 33 90 33 126 0 39 -19 122 -33 139 -13 17 -52 15 -71 -4z
m52 -16 c8 -8 12 -48 12 -115 0 -83 -3 -105 -15 -109 -34 -13 -45 15 -45 115
0 89 8 121 30 121 3 0 11 -5 18 -12z"></path>
<path d="M3822 1907 c-27 -29 -28 -37 -2 -37 18 0 20 -8 22 -110 2 -67 7 -109
13 -108 13 4 11 271 -2 275 -5 2 -19 -7 -31 -20z"></path>
<path d="M3937 1869 c-21 -34 -37 -67 -37 -73 0 -7 -5 -17 -11 -23 -19 -19 -2
-43 30 -43 34 0 46 -14 46 -50 0 -15 6 -26 17 -28 16 -3 17 9 14 134 -2 80 -7
139 -13 141 -5 2 -26 -24 -46 -58z m36 -56 c-6 -43 -19 -63 -39 -63 -24 0 -25
18 -3 59 27 53 50 55 42 4z"></path>
<path d="M3315 1879 c-10 -26 -1 -234 10 -232 13 4 19 223 6 236 -7 7 -12 5
-16 -4z"></path>
<path d="M5255 1806 c-30 -30 -55 -60 -54 -68 0 -7 50 -56 112 -108 61 -52
148 -128 194 -169 65 -57 87 -71 96 -62 12 12 -21 46 -125 128 -27 20 -48 42
-48 49 0 19 78 84 101 84 30 0 58 -17 116 -71 28 -27 56 -49 62 -49 24 0 17
20 -22 57 -67 63 -109 91 -146 95 -28 2 -36 8 -42 31 -12 43 -52 89 -99 115
-64 34 -83 29 -145 -32z m147 -8 c41 -28 68 -68 68 -97 -1 -15 -15 -43 -34
-65 l-33 -39 -82 68 c-44 38 -81 71 -81 75 0 4 20 26 45 49 50 46 64 47 117 9z"></path>
<path d="M1582 1587 c-94 -95 -172 -178 -172 -184 0 -18 107 -123 125 -123 26
0 16 17 -42 70 l-56 51 74 75 c40 41 78 74 84 74 5 0 29 -23 53 -50 24 -28 50
-50 58 -50 28 0 13 30 -36 72 -27 24 -50 48 -50 53 0 14 132 145 146 145 5 0
32 -22 59 -50 50 -51 65 -60 65 -38 0 15 -110 128 -125 128 -6 0 -88 -78 -183
-173z"></path>
<path d="M5100 1646 l-63 -65 34 -40 c92 -108 306 -329 319 -330 8 0 44 27 79
62 49 47 60 63 46 65 -10 3 -36 -14 -64 -42 -26 -25 -51 -46 -57 -46 -13 0
-144 133 -144 147 0 6 26 34 57 62 46 40 55 53 45 63 -10 10 -23 2 -65 -40
-29 -29 -57 -52 -63 -52 -6 0 -35 26 -65 58 -92 97 -90 85 -24 145 37 33 56
58 51 65 -12 19 -18 15 -86 -52z"></path>
<path d="M3422 1659 c2 -6 8 -10 13 -10 5 0 11 4 13 10 2 6 -4 11 -13 11 -9 0
-15 -5 -13 -11z"></path>
<path d="M1775 1443 c-76 -98 -149 -190 -163 -205 -23 -26 -23 -48 1 -48 7 0
21 13 32 29 11 16 56 77 100 135 76 100 104 127 92 89 -10 -33 -98 -248 -117
-286 -16 -31 -16 -39 -5 -43 17 -7 14 -9 168 104 70 52 130 92 133 89 3 -3
-39 -62 -93 -132 -54 -69 -98 -131 -98 -137 0 -35 35 1 165 168 191 245 175
223 157 230 -16 6 -50 -16 -253 -168 -95 -71 -124 -88 -124 -72 0 3 11 29 23
57 62 137 139 349 130 358 -7 7 -58 -51 -148 -168z"></path>
<path d="M4995 1559 c-4 -5 4 -33 18 -62 14 -29 42 -92 62 -142 20 -49 48
-114 62 -143 14 -29 23 -55 20 -58 -5 -6 -237 177 -305 240 -24 23 -35 27 -44
18 -16 -16 -9 -23 209 -199 135 -109 197 -153 204 -146 8 8 6 19 -4 39 -8 16
-29 65 -46 109 -18 44 -39 94 -47 112 -8 18 -20 48 -28 66 -8 17 -23 53 -35
79 -12 27 -26 59 -31 73 -10 26 -24 32 -35 14z"></path>
<path d="M2187 1378 c-24 -31 -111 -167 -161 -248 -11 -19 -40 -64 -63 -99
-24 -35 -40 -67 -37 -72 9 -15 34 -10 41 9 4 9 27 49 53 87 130 196 212 337
202 347 -6 6 -18 -1 -35 -24z"></path>
<path d="M4745 1380 c-4 -6 9 -34 28 -63 19 -29 82 -127 142 -219 59 -93 111
-168 115 -168 25 0 13 30 -61 147 -211 330 -209 327 -224 303z"></path>
<path d="M2253 1358 c-6 -7 -26 -42 -45 -78 -49 -91 -112 -208 -137 -255 -25
-47 -27 -102 -6 -132 21 -30 79 -57 108 -49 28 7 71 48 90 85 7 14 32 60 54
101 22 41 57 107 78 145 20 39 41 75 46 81 5 6 6 14 2 17 -15 16 -34 5 -51
-30 -67 -134 -170 -314 -195 -340 -11 -13 -32 -23 -47 -23 -32 0 -70 38 -70
69 0 20 49 121 121 247 10 19 28 50 39 70 11 19 27 46 36 59 22 34 1 63 -23
33z"></path>
<path d="M4550 1254 c0 -15 14 -42 144 -278 36 -66 66 -122 66 -125 0 -3 9
-16 18 -29 l18 -24 50 29 c27 16 66 37 87 46 20 10 37 22 37 28 0 20 -29 19
-66 -2 -82 -46 -87 -49 -101 -38 -7 6 -38 59 -70 118 -32 58 -65 120 -75 136
-9 17 -32 58 -50 93 -31 59 -58 81 -58 46z"></path>
<path d="M4486 1242 c-3 -5 -32 -20 -63 -32 -32 -13 -64 -28 -71 -35 -14 -12
-14 -11 69 -193 16 -35 29 -65 29 -67 0 -3 13 -33 29 -67 15 -35 34 -80 42
-101 19 -53 31 -61 65 -42 16 8 55 26 87 40 31 14 57 30 57 35 0 22 -24 19
-87 -10 -54 -25 -69 -29 -79 -18 -14 15 -74 151 -74 167 0 6 29 24 64 41 35
16 67 34 71 40 14 23 -28 21 -80 -4 -31 -14 -61 -26 -69 -26 -7 0 -27 32 -44
71 -51 112 -51 112 5 136 26 11 56 23 66 27 10 3 17 13 15 23 -4 19 -23 28
-32 15z"></path>
<path d="M2382 1005 c-55 -137 -91 -243 -88 -252 5 -12 10 -13 18 -5 10 10 73
168 105 265 9 26 20 46 25 45 12 -4 12 0 0 -131 -19 -193 -21 -227 -12 -232 8
-5 65 65 189 228 24 31 46 57 48 57 8 0 -6 -48 -28 -99 -12 -25 -25 -55 -29
-66 -4 -11 -20 -51 -35 -88 -21 -51 -25 -71 -16 -80 16 -16 22 -5 65 108 21
55 42 110 47 123 5 12 13 32 18 45 5 12 25 62 44 111 20 49 34 93 31 98 -11
18 -30 5 -64 -42 -106 -148 -217 -289 -227 -289 -12 -1 -11 51 3 139 3 19 9
87 13 150 4 63 9 121 12 129 2 8 -3 16 -11 18 -11 3 -39 -57 -108 -232z"></path>
<path d="M4175 1120 c-3 -5 -17 -10 -29 -10 -44 0 -51 -24 -26 -85 4 -11 29
-87 55 -170 83 -265 76 -251 116 -247 18 2 38 8 44 13 5 5 17 9 26 9 31 0 69
57 68 103 0 60 -88 320 -122 362 -25 31 -33 35 -77 35 -27 0 -52 -4 -55 -10z
m104 -48 c18 -18 37 -57 55 -117 15 -50 34 -108 41 -130 28 -87 29 -114 4
-141 -24 -25 -89 -49 -100 -36 -3 4 -21 54 -39 112 -18 58 -35 114 -40 125 -4
11 -19 56 -33 99 -29 87 -26 102 21 109 55 8 64 6 91 -21z"></path>
<path d="M2947 1073 c-4 -3 -7 -19 -7 -35 0 -16 -4 -48 -10 -71 -12 -51 -72
-376 -74 -397 0 -8 5 -15 13 -15 14 0 25 37 52 173 13 69 25 80 67 64 45 -18
107 -19 107 -3 0 10 -23 20 -75 30 l-75 16 4 45 c2 24 7 55 12 68 5 13 9 36 9
52 0 38 7 41 71 30 89 -16 94 -16 94 0 0 9 -18 18 -50 26 -83 18 -132 24 -138
17z"></path>
<path d="M3717 1028 c-17 -14 -16 -29 13 -233 5 -38 15 -113 21 -165 15 -122
20 -128 101 -112 89 18 108 43 108 139 0 68 -9 147 -32 272 -7 38 -19 63 -38
83 -25 25 -36 28 -92 28 -36 0 -71 -6 -81 -12z m148 -42 c27 -27 28 -32 45
-161 7 -49 16 -112 20 -139 13 -83 -16 -123 -90 -128 l-45 -3 -6 50 c-4 28
-12 86 -18 130 -6 44 -14 112 -19 151 -5 40 -13 77 -17 83 -26 43 89 58 130
17z"></path>
<path d="M3200 1000 c-34 -36 -49 -126 -53 -307 l-2 -121 29 -31 c25 -26 37
-31 77 -31 85 0 114 42 123 180 3 41 8 119 12 172 l7 97 -36 36 c-30 30 -42
35 -82 35 -39 0 -52 -5 -75 -30z m131 -29 c16 -16 29 -38 29 -48 -1 -66 -30
-325 -39 -342 -24 -44 -81 -54 -118 -19 -21 20 -23 30 -23 122 1 149 22 275
50 298 32 26 67 22 101 -11z"></path>
<path d="M3469 989 l-29 -31 0 -170 c0 -102 5 -186 12 -210 16 -53 49 -78 105
-78 56 0 78 12 99 53 15 28 16 55 10 210 -3 99 -11 189 -17 201 -20 38 -51 56
-102 56 -42 0 -53 -4 -78 -31z m134 -28 c22 -27 24 -38 30 -185 7 -201 -2
-232 -65 -243 -30 -4 -41 -1 -61 19 -31 31 -40 102 -35 276 3 116 4 125 27
143 35 28 75 24 104 -10z"></path>
</g>
</svg>